# Blender v2.79 (sub 0) OBJ File: ''
# www.blender.org
mtllib Arrow.mtl
o Cone
v 0.718162 2.800013 2.003369
v 1.056828 2.839458 1.747573
v 1.339124 2.875145 1.430211
v 1.554201 2.905703 1.063482
v 1.693794 2.929958 0.661477
v 1.752538 2.946977 0.239645
v 1.728176 2.956107 -0.185803
v 1.621644 2.956996 -0.598517
v 1.437036 2.949611 -0.982636
v 1.181447 2.934235 -1.323400
v 0.864697 2.911459 -1.607713
v 0.498961 2.882159 -1.824649
v 0.098293 2.847460 -1.965872
v -0.321910 2.808696 -2.025953
v -0.745499 2.767356 -2.002584
v -1.156196 2.725030 -1.896664
v -1.538218 2.683343 -1.712262
v -1.876885 2.643899 -1.456466
v -2.159181 2.608212 -1.139104
v -2.374258 2.577653 -0.772374
v -2.513851 2.553399 -0.370369
v -2.572594 2.536380 0.051463
v -2.548232 2.527250 0.476911
v 0.005837 -1.585470 0.028883
v -2.441700 2.526361 0.889625
v -2.257091 2.533746 1.273745
v -2.001501 2.549122 1.614509
v -1.684751 2.571898 1.898821
v -1.319015 2.601198 2.115757
v -0.918346 2.635897 2.256979
v -0.498143 2.674661 2.317059
v -0.074554 2.716001 2.293690
v 0.336143 2.758327 2.187769
vn 0.5794 -0.4110 0.7038
vn 0.7079 -0.3954 0.5852
vn 0.8108 -0.3817 0.4437
vn 0.8842 -0.3704 0.2847
vn 0.9252 -0.3619 0.1142
vn 0.9323 -0.3565 -0.0610
vn 0.9052 -0.3544 -0.2344
vn 0.8450 -0.3557 -0.3993
vn 0.7539 -0.3604 -0.5492
vn 0.6355 -0.3683 -0.6785
vn 0.4944 -0.3791 -0.7822
vn 0.3358 -0.3923 -0.8563
vn 0.1660 -0.4075 -0.8980
vn -0.0086 -0.4241 -0.9056
vn -0.1812 -0.4414 -0.8788
vn -0.3452 -0.4588 -0.8188
vn -0.4942 -0.4756 -0.7277
vn -0.6227 -0.4911 -0.6091
vn -0.7256 -0.5048 -0.4676
vn -0.7990 -0.5162 -0.3086
vn -0.8400 -0.5247 -0.1381
vn -0.8471 -0.5301 0.0371
vn -0.8200 -0.5322 0.2105
vn -0.7598 -0.5308 0.3754
vn -0.6687 -0.5261 0.5253
vn -0.5503 -0.5182 0.6546
vn -0.4091 -0.5075 0.7583
vn -0.2506 -0.4942 0.8324
vn -0.0808 -0.4790 0.8741
vn 0.0938 -0.4625 0.8817
vn 0.2664 -0.4452 0.8549
vn 0.4304 -0.4278 0.7949
vn -0.0956 0.9951 0.0268
usemtl None
s off
f 1//1 24//1 2//1
f 2//2 24//2 3//2
f 3//3 24//3 4//3
f 4//4 24//4 5//4
f 5//5 24//5 6//5
f 6//6 24//6 7//6
f 7//7 24//7 8//7
f 8//8 24//8 9//8
f 9//9 24//9 10//9
f 10//10 24//10 11//10
f 11//11 24//11 12//11
f 12//12 24//12 13//12
f 13//13 24//13 14//13
f 14//14 24//14 15//14
f 15//15 24//15 16//15
f 16//16 24//16 17//16
f 17//17 24//17 18//17
f 18//18 24//18 19//18
f 19//19 24//19 20//19
f 20//20 24//20 21//20
f 21//21 24//21 22//21
f 22//22 24//22 23//22
f 23//23 24//23 25//23
f 25//24 24//24 26//24
f 26//25 24//25 27//25
f 27//26 24//26 28//26
f 28//27 24//27 29//27
f 29//28 24//28 30//28
f 30//29 24//29 31//29
f 31//30 24//30 32//30
f 32//31 24//31 33//31
f 33//32 24//32 1//32
f 1//33 2//33 3//33 4//33 5//33 6//33 7//33 8//33 9//33 10//33 11//33 12//33 13//33 14//33 15//33 16//33 17//33 18//33 19//33 20//33 21//33 22//33 23//33 25//33 26//33 27//33 28//33 29//33 30//33 31//33 32//33 33//33
o Cube.001_Cube.002
v -1.000000 2.400000 1.000000
v -1.000000 7.600000 1.000000
v -1.000000 2.400000 -1.000000
v -1.000000 7.600000 -1.000000
v 1.000000 2.400000 1.000000
v 1.000000 7.600000 1.000000
v 1.000000 2.400000 -1.000000
v 1.000000 7.600000 -1.000000
vn -1.0000 0.0000 0.0000
vn 0.0000 0.0000 -1.0000
vn 1.0000 0.0000 0.0000
vn 0.0000 0.0000 1.0000
vn 0.0000 -1.0000 0.0000
vn 0.0000 1.0000 0.0000
usemtl None
s off
f 34//34 35//34 37//34 36//34
f 36//35 37//35 41//35 40//35
f 40//36 41//36 39//36 38//36
f 38//37 39//37 35//37 34//37
f 36//38 40//38 38//38 34//38
f 41//39 37//39 35//39 39//39
o Cube_Cube.001
v -1.000000 2.400000 1.000000
v -1.000000 7.600000 1.000000
v -1.000000 2.400000 -1.000000
v -1.000000 7.600000 -1.000000
v 1.000000 2.400000 1.000000
v 1.000000 7.600000 1.000000
v 1.000000 2.400000 -1.000000
v 1.000000 7.600000 -1.000000
vn -1.0000 0.0000 0.0000
vn 0.0000 0.0000 -1.0000
vn 1.0000 0.0000 0.0000
vn 0.0000 0.0000 1.0000
vn 0.0000 -1.0000 0.0000
vn 0.0000 1.0000 0.0000
usemtl None
s off
f 42//40 43//40 45//40 44//40
f 44//41 45//41 49//41 48//41
f 48//42 49//42 47//42 46//42
f 46//43 47//43 43//43 42//43
f 44//44 48//44 46//44 42//44
f 49//45 45//45 43//45 47//45
