# Blender v2.79 (sub 0) OBJ File: ''
# www.blender.org
mtllib House.mtl
o Cone.000_Cone.003
v -0.003118 12.009014 -9.997728
v 5.996882 6.009014 -9.997728
v -0.003118 12.009014 10.002272
v 5.996882 6.009014 10.002272
v -6.003118 6.009014 -9.997728
v -6.003118 6.009014 10.002272
vn 0.7071 0.7071 0.0000
vn 0.0000 0.0000 -1.0000
vn 0.0000 0.0000 1.0000
vn 0.0000 -1.0000 0.0000
vn -0.7071 0.7071 0.0000
usemtl Material.006
s off
f 2//1 1//1 3//1 4//1
f 5//2 1//2 2//2
f 4//3 3//3 6//3
f 5//4 2//4 4//4 6//4
f 6//5 3//5 1//5 5//5
o Cube.001_Cube.004
v -6.000000 0.000000 10.000000
v -6.000000 6.000000 10.000000
v -6.000000 0.000000 -10.000000
v -6.000000 6.000000 -10.000000
v 6.000000 0.000000 10.000000
v 6.000000 6.000000 10.000000
v 6.000000 0.000000 -10.000000
v 6.000000 6.000000 -10.000000
vn -1.0000 0.0000 0.0000
vn 0.0000 0.0000 -1.0000
vn 1.0000 0.0000 0.0000
vn 0.0000 0.0000 1.0000
vn 0.0000 -1.0000 0.0000
vn 0.0000 1.0000 0.0000
usemtl Material.007
s off
f 7//6 8//6 10//6 9//6
f 9//7 10//7 14//7 13//7
f 13//8 14//8 12//8 11//8
f 11//9 12//9 8//9 7//9
f 9//10 13//10 11//10 7//10
f 14//11 10//11 8//11 12//11
o Cube_Cube.003
v -6.000000 0.000000 10.000000
v -6.000000 6.000000 10.000000
v -6.000000 0.000000 -10.000000
v -6.000000 6.000000 -10.000000
v 6.000000 0.000000 10.000000
v 6.000000 6.000000 10.000000
v 6.000000 0.000000 -10.000000
v 6.000000 6.000000 -10.000000
vn -1.0000 0.0000 0.0000
vn 0.0000 0.0000 -1.0000
vn 1.0000 0.0000 0.0000
vn 0.0000 0.0000 1.0000
vn 0.0000 -1.0000 0.0000
vn 0.0000 1.0000 0.0000
usemtl None
s off
f 15//12 16//12 18//12 17//12
f 17//13 18//13 22//13 21//13
f 21//14 22//14 20//14 19//14
f 19//15 20//15 16//15 15//15
f 17//16 21//16 19//16 15//16
f 22//17 18//17 16//17 20//17
