# Blender v2.79 (sub 0) OBJ File: ''
# www.blender.org
mtllib Peanut.mtl
o Icosphere.001_Icosphere.097
v 1.445771 0.330186 0.000000
v 2.169371 0.882971 0.525720
v 1.169386 0.882971 0.850640
v 0.551346 0.882971 0.000000
v 1.169386 0.882971 -0.850640
v 2.169371 0.882971 -0.525720
v 1.722156 1.777401 0.850640
v 0.722171 1.777401 0.525720
v 0.722171 1.777401 -0.525720
v 1.722156 1.777401 -0.850640
v 2.340196 1.777401 0.000000
v 1.445771 2.330186 0.000000
vn 0.1876 -0.7947 0.5774
vn 0.6071 -0.7947 0.0000
vn -0.4911 -0.7947 0.3568
vn -0.4911 -0.7947 -0.3568
vn 0.1876 -0.7947 -0.5774
vn 0.9822 -0.1876 0.0000
vn 0.3035 -0.1876 0.9342
vn -0.7946 -0.1876 0.5774
vn -0.7946 -0.1876 -0.5774
vn 0.3035 -0.1876 -0.9342
vn 0.7946 0.1876 0.5774
vn -0.3035 0.1876 0.9342
vn -0.9822 0.1876 0.0000
vn -0.3035 0.1876 -0.9342
vn 0.7946 0.1876 -0.5774
vn 0.4911 0.7947 0.3568
vn -0.1876 0.7947 0.5774
vn -0.6071 0.7947 0.0000
vn -0.1876 0.7947 -0.5774
vn 0.4911 0.7947 -0.3568
usemtl Material.113
s off
f 1//1 2//1 3//1
f 2//2 1//2 6//2
f 1//3 3//3 4//3
f 1//4 4//4 5//4
f 1//5 5//5 6//5
f 2//6 6//6 11//6
f 3//7 2//7 7//7
f 4//8 3//8 8//8
f 5//9 4//9 9//9
f 6//10 5//10 10//10
f 2//11 11//11 7//11
f 3//12 7//12 8//12
f 4//13 8//13 9//13
f 5//14 9//14 10//14
f 6//15 10//15 11//15
f 7//16 11//16 12//16
f 8//17 7//17 12//17
f 9//18 8//18 12//18
f 10//19 9//19 12//19
f 11//20 10//20 12//20
o Icosphere_Icosphere.096
v 0.000000 0.000000 0.000000
v 1.953720 0.552785 0.525720
v -0.746239 0.552785 0.850640
v -2.414947 0.552785 0.000000
v -0.746239 0.552785 -0.850640
v 1.953720 0.552785 -0.525720
v 0.746239 1.447215 0.850640
v -1.953720 1.447215 0.525720
v -1.953720 1.447215 -0.525720
v 0.746239 1.447215 -0.850640
v 2.414947 1.447215 0.000000
v 0.000000 2.000000 0.000000
vn 0.0706 -0.8070 0.5863
vn 0.2723 -0.9622 0.0000
vn -0.2044 -0.8930 0.4010
vn -0.2044 -0.8930 -0.4010
vn 0.0706 -0.8070 -0.5863
vn 0.8888 -0.4583 0.0000
vn 0.1172 -0.1955 0.9737
vn -0.4362 -0.2781 0.8558
vn -0.4362 -0.2781 -0.8558
vn 0.1172 -0.1955 -0.9737
vn 0.4362 0.2781 0.8558
vn -0.1172 0.1955 0.9737
vn -0.8888 0.4583 0.0000
vn -0.1172 0.1955 -0.9737
vn 0.4362 0.2781 -0.8558
vn 0.2044 0.8930 0.4010
vn -0.0706 0.8070 0.5863
vn -0.2723 0.9622 0.0000
vn -0.0706 0.8070 -0.5863
vn 0.2044 0.8930 -0.4010
usemtl Material.112
s off
f 13//21 14//21 15//21
f 14//22 13//22 18//22
f 13//23 15//23 16//23
f 13//24 16//24 17//24
f 13//25 17//25 18//25
f 14//26 18//26 23//26
f 15//27 14//27 19//27
f 16//28 15//28 20//28
f 17//29 16//29 21//29
f 18//30 17//30 22//30
f 14//31 23//31 19//31
f 15//32 19//32 20//32
f 16//33 20//33 21//33
f 17//34 21//34 22//34
f 18//35 22//35 23//35
f 19//36 23//36 24//36
f 20//37 19//37 24//37
f 21//38 20//38 24//38
f 22//39 21//39 24//39
f 23//40 22//40 24//40
o Icosphere.002_Icosphere.098
v -0.285555 -0.500752 -0.319080
v 0.438045 0.052033 0.206640
v -0.561940 0.052033 0.531560
v -1.179980 0.052033 -0.319080
v -0.561940 0.052033 -1.169720
v 0.438045 0.052033 -0.844800
v -0.009170 0.946463 0.531560
v -1.009155 0.946463 0.206640
v -1.009155 0.946463 -0.844800
v -0.009170 0.946463 -1.169720
v 0.608870 0.946463 -0.319080
v -0.285555 1.499248 -0.319080
vn 0.1876 -0.7947 0.5774
vn 0.6071 -0.7947 0.0000
vn -0.4911 -0.7947 0.3568
vn -0.4911 -0.7947 -0.3568
vn 0.1876 -0.7947 -0.5774
vn 0.9822 -0.1876 0.0000
vn 0.3035 -0.1876 0.9342
vn -0.7946 -0.1876 0.5774
vn -0.7946 -0.1876 -0.5774
vn 0.3035 -0.1876 -0.9342
vn 0.7946 0.1876 0.5774
vn -0.3035 0.1876 0.9342
vn -0.9822 0.1876 0.0000
vn -0.3035 0.1876 -0.9342
vn 0.7946 0.1876 -0.5774
vn 0.4911 0.7947 0.3568
vn -0.1876 0.7947 0.5774
vn -0.6071 0.7947 0.0000
vn -0.1876 0.7947 -0.5774
vn 0.4911 0.7947 -0.3568
usemtl Material.114
s off
f 25//41 26//41 27//41
f 26//42 25//42 30//42
f 25//43 27//43 28//43
f 25//44 28//44 29//44
f 25//45 29//45 30//45
f 26//46 30//46 35//46
f 27//47 26//47 31//47
f 28//48 27//48 32//48
f 29//49 28//49 33//49
f 30//50 29//50 34//50
f 26//51 35//51 31//51
f 27//52 31//52 32//52
f 28//53 32//53 33//53
f 29//54 33//54 34//54
f 30//55 34//55 35//55
f 31//56 35//56 36//56
f 32//57 31//57 36//57
f 33//58 32//58 36//58
f 34//59 33//59 36//59
f 35//60 34//60 36//60
o Icosphere.003_Icosphere.099
v -1.881029 -0.645414 0.204528
v -1.157429 -0.092629 0.730248
v -2.157414 -0.092629 1.055168
v -2.775454 -0.092629 0.204528
v -2.157414 -0.092629 -0.646112
v -1.157429 -0.092629 -0.321192
v -1.604644 0.801801 1.055168
v -2.604629 0.801801 0.730248
v -2.604629 0.801801 -0.321192
v -1.604644 0.801801 -0.646112
v -0.986604 0.801801 0.204528
v -1.881029 1.354586 0.204528
vn 0.1876 -0.7947 0.5774
vn 0.6071 -0.7947 0.0000
vn -0.4911 -0.7947 0.3568
vn -0.4911 -0.7947 -0.3568
vn 0.1876 -0.7947 -0.5774
vn 0.9822 -0.1876 0.0000
vn 0.3035 -0.1876 0.9342
vn -0.7946 -0.1876 0.5774
vn -0.7946 -0.1876 -0.5774
vn 0.3035 -0.1876 -0.9342
vn 0.7946 0.1876 0.5774
vn -0.3035 0.1876 0.9342
vn -0.9822 0.1876 0.0000
vn -0.3035 0.1876 -0.9342
vn 0.7946 0.1876 -0.5774
vn 0.4911 0.7947 0.3568
vn -0.1876 0.7947 0.5774
vn -0.6071 0.7947 0.0000
vn -0.1876 0.7947 -0.5774
vn 0.4911 0.7947 -0.3568
usemtl Material.115
s off
f 37//61 38//61 39//61
f 38//62 37//62 42//62
f 37//63 39//63 40//63
f 37//64 40//64 41//64
f 37//65 41//65 42//65
f 38//66 42//66 47//66
f 39//67 38//67 43//67
f 40//68 39//68 44//68
f 41//69 40//69 45//69
f 42//70 41//70 46//70
f 38//71 47//71 43//71
f 39//72 43//72 44//72
f 40//73 44//73 45//73
f 41//74 45//74 46//74
f 42//75 46//75 47//75
f 43//76 47//76 48//76
f 44//77 43//77 48//77
f 45//78 44//78 48//78
f 46//79 45//79 48//79
f 47//80 46//80 48//80
o Icosphere.004_Icosphere.100
v -1.730659 1.324275 0.204528
v -1.368859 1.490111 0.467388
v -1.868852 1.490111 0.629848
v -2.177872 1.490111 0.204528
v -1.868852 1.490111 -0.220792
v -1.368859 1.490111 -0.058332
v -1.592467 1.758440 0.629848
v -2.092459 1.758440 0.467388
v -2.092459 1.758440 -0.058332
v -1.592467 1.758440 -0.220792
v -1.283447 1.758440 0.204528
v -1.730659 1.924275 0.204528
vn 0.1288 -0.9091 0.3963
vn 0.4167 -0.9091 0.0000
vn -0.3371 -0.9091 0.2449
vn -0.3371 -0.9091 -0.2449
vn 0.1288 -0.9091 -0.3963
vn 0.9529 -0.3033 0.0000
vn 0.2945 -0.3033 0.9063
vn -0.7709 -0.3033 0.5601
vn -0.7709 -0.3033 -0.5601
vn 0.2945 -0.3033 -0.9063
vn 0.7709 0.3033 0.5601
vn -0.2945 0.3033 0.9063
vn -0.9529 0.3033 0.0000
vn -0.2945 0.3033 -0.9063
vn 0.7709 0.3033 -0.5601
vn 0.3371 0.9091 0.2449
vn -0.1288 0.9091 0.3963
vn -0.4167 0.9091 0.0000
vn -0.1288 0.9091 -0.3963
vn 0.3371 0.9091 -0.2449
usemtl Material.116
s off
f 49//81 50//81 51//81
f 50//82 49//82 54//82
f 49//83 51//83 52//83
f 49//84 52//84 53//84
f 49//85 53//85 54//85
f 50//86 54//86 59//86
f 51//87 50//87 55//87
f 52//88 51//88 56//88
f 53//89 52//89 57//89
f 54//90 53//90 58//90
f 50//91 59//91 55//91
f 51//92 55//92 56//92
f 52//93 56//93 57//93
f 53//94 57//94 58//94
f 54//95 58//95 59//95
f 55//96 59//96 60//96
f 56//97 55//97 60//97
f 57//98 56//98 60//98
f 58//99 57//99 60//99
f 59//100 58//100 60//100
o Icosphere.005_Icosphere.101
v 0.362159 -0.167624 0.874171
v 0.868679 0.219326 1.084459
v 0.168690 0.219326 1.214427
v -0.263938 0.219326 0.874171
v 0.168690 0.219326 0.533915
v 0.868679 0.219326 0.663883
v 0.555629 0.845427 1.214427
v -0.144361 0.845427 1.084459
v -0.144361 0.845427 0.663883
v 0.555629 0.845427 0.533915
v 0.988257 0.845427 0.874171
v 0.362159 1.232376 0.874171
vn 0.1444 -0.6117 0.7778
vn 0.6071 -0.7947 0.0000
vn -0.4371 -0.7072 0.5557
vn -0.4371 -0.7072 -0.5557
vn 0.1444 -0.6117 -0.7778
vn 0.9822 -0.1876 0.0000
vn 0.1814 -0.1121 0.9770
vn -0.6117 -0.1444 0.7778
vn -0.6117 -0.1444 -0.7778
vn 0.1814 -0.1121 -0.9770
vn 0.6117 0.1444 0.7778
vn -0.1814 0.1121 0.9770
vn -0.9822 0.1876 0.0000
vn -0.1814 0.1121 -0.9770
vn 0.6117 0.1444 -0.7778
vn 0.4371 0.7072 0.5557
vn -0.1444 0.6117 0.7778
vn -0.6071 0.7947 0.0000
vn -0.1444 0.6117 -0.7778
vn 0.4371 0.7072 -0.5557
usemtl Material.117
s off
f 61//101 62//101 63//101
f 62//102 61//102 66//102
f 61//103 63//103 64//103
f 61//104 64//104 65//104
f 61//105 65//105 66//105
f 62//106 66//106 71//106
f 63//107 62//107 67//107
f 64//108 63//108 68//108
f 65//109 64//109 69//109
f 66//110 65//110 70//110
f 62//111 71//111 67//111
f 63//112 67//112 68//112
f 64//113 68//113 69//113
f 65//114 69//114 70//114
f 66//115 70//115 71//115
f 67//116 71//116 72//116
f 68//117 67//117 72//117
f 69//118 68//118 72//118
f 70//119 69//119 72//119
f 71//120 70//120 72//120
o Icosphere.006_Icosphere.102
v -1.086299 -0.012630 -0.482551
v -1.013939 0.153205 -0.429979
v -1.113937 0.153205 -0.397487
v -1.175741 0.153205 -0.482551
v -1.113937 0.153205 -0.567615
v -1.013939 0.153205 -0.535123
v -1.058660 0.421534 -0.397487
v -1.158659 0.421534 -0.429979
v -1.158659 0.421534 -0.535123
v -1.058660 0.421534 -0.567615
v -0.996856 0.421534 -0.482551
v -1.086299 0.587370 -0.482551
vn 0.2832 -0.3999 0.8717
vn 0.9165 -0.3999 0.0000
vn -0.7415 -0.3999 0.5387
vn -0.7415 -0.3999 -0.5387
vn 0.2832 -0.3999 -0.8717
vn 0.9980 -0.0635 0.0000
vn 0.3084 -0.0635 0.9491
vn -0.8074 -0.0635 0.5866
vn -0.8074 -0.0635 -0.5866
vn 0.3084 -0.0635 -0.9491
vn 0.8074 0.0635 0.5866
vn -0.3084 0.0635 0.9491
vn -0.9980 0.0635 0.0000
vn -0.3084 0.0635 -0.9491
vn 0.8074 0.0635 -0.5866
vn 0.7415 0.3999 0.5387
vn -0.2832 0.3999 0.8717
vn -0.9165 0.3999 0.0000
vn -0.2832 0.3999 -0.8717
vn 0.7415 0.3999 -0.5387
usemtl Material.118
s off
f 73//121 74//121 75//121
f 74//122 73//122 78//122
f 73//123 75//123 76//123
f 73//124 76//124 77//124
f 73//125 77//125 78//125
f 74//126 78//126 83//126
f 75//127 74//127 79//127
f 76//128 75//128 80//128
f 77//129 76//129 81//129
f 78//130 77//130 82//130
f 74//131 83//131 79//131
f 75//132 79//132 80//132
f 76//133 80//133 81//133
f 77//134 81//134 82//134
f 78//135 82//135 83//135
f 79//136 83//136 84//136
f 80//137 79//137 84//137
f 81//138 80//138 84//138
f 82//139 81//139 84//139
f 83//140 82//140 84//140
o Icosphere.007_Icosphere.103
v 0.752890 -0.097580 -0.292437
v 0.825250 0.068256 -0.239865
v 0.725251 0.068256 -0.207373
v 0.663447 0.068256 -0.292437
v 0.725251 0.068256 -0.377501
v 0.825250 0.068256 -0.345009
v 0.780528 0.336585 -0.207373
v 0.680530 0.336585 -0.239865
v 0.680530 0.336585 -0.345009
v 0.780528 0.336585 -0.377501
v 0.842332 0.336585 -0.292437
v 0.752890 0.502420 -0.292437
vn 0.2832 -0.3999 0.8717
vn 0.9165 -0.3999 0.0000
vn -0.7415 -0.3999 0.5387
vn -0.7415 -0.3999 -0.5387
vn 0.2832 -0.3999 -0.8717
vn 0.9980 -0.0635 0.0000
vn 0.3084 -0.0635 0.9491
vn -0.8074 -0.0635 0.5866
vn -0.8074 -0.0635 -0.5866
vn 0.3084 -0.0635 -0.9491
vn 0.8074 0.0635 0.5866
vn -0.3084 0.0635 0.9491
vn -0.9980 0.0635 0.0000
vn -0.3084 0.0635 -0.9491
vn 0.8074 0.0635 -0.5866
vn 0.7415 0.3999 0.5387
vn -0.2832 0.3999 0.8717
vn -0.9165 0.3999 0.0000
vn -0.2832 0.3999 -0.8717
vn 0.7415 0.3999 -0.5387
usemtl Material.119
s off
f 85//141 86//141 87//141
f 86//142 85//142 90//142
f 85//143 87//143 88//143
f 85//144 88//144 89//144
f 85//145 89//145 90//145
f 86//146 90//146 95//146
f 87//147 86//147 91//147
f 88//148 87//148 92//148
f 89//149 88//149 93//149
f 90//150 89//150 94//150
f 86//151 95//151 91//151
f 87//152 91//152 92//152
f 88//153 92//153 93//153
f 89//154 93//154 94//154
f 90//155 94//155 95//155
f 91//156 95//156 96//156
f 92//157 91//157 96//157
f 93//158 92//158 96//158
f 94//159 93//159 96//159
f 95//160 94//160 96//160
o Icosphere.008_Icosphere.104
v -0.662768 -0.097580 0.353431
v -0.590408 0.068256 0.406003
v -0.690407 0.068256 0.438495
v -0.752211 0.068256 0.353431
v -0.690407 0.068256 0.268367
v -0.590408 0.068256 0.300859
v -0.635130 0.336585 0.438495
v -0.735128 0.336585 0.406003
v -0.735128 0.336585 0.300859
v -0.635130 0.336585 0.268367
v -0.573326 0.336585 0.353431
v -0.662768 0.502420 0.353431
vn 0.2832 -0.3999 0.8717
vn 0.9165 -0.3999 0.0000
vn -0.7415 -0.3999 0.5387
vn -0.7415 -0.3999 -0.5387
vn 0.2832 -0.3999 -0.8717
vn 0.9980 -0.0635 0.0000
vn 0.3084 -0.0635 0.9491
vn -0.8074 -0.0635 0.5866
vn -0.8074 -0.0635 -0.5866
vn 0.3084 -0.0635 -0.9491
vn 0.8074 0.0635 0.5866
vn -0.3084 0.0635 0.9491
vn -0.9980 0.0635 0.0000
vn -0.3084 0.0635 -0.9491
vn 0.8074 0.0635 -0.5866
vn 0.7415 0.3999 0.5387
vn -0.2832 0.3999 0.8717
vn -0.9165 0.3999 0.0000
vn -0.2832 0.3999 -0.8717
vn 0.7415 0.3999 -0.5387
usemtl Material.120
s off
f 97//161 98//161 99//161
f 98//162 97//162 102//162
f 97//163 99//163 100//163
f 97//164 100//164 101//164
f 97//165 101//165 102//165
f 98//166 102//166 107//166
f 99//167 98//167 103//167
f 100//168 99//168 104//168
f 101//169 100//169 105//169
f 102//170 101//170 106//170
f 98//171 107//171 103//171
f 99//172 103//172 104//172
f 100//173 104//173 105//173
f 101//174 105//174 106//174
f 102//175 106//175 107//175
f 103//176 107//176 108//176
f 104//177 103//177 108//177
f 105//178 104//178 108//178
f 106//179 105//179 108//179
f 107//180 106//180 108//180
